<svg xmlns="http://www.w3.org/2000/svg" width="1500" height="760" viewBox="0 0 1500 760" role="img" aria-labelledby="title desc">
  <title id="title">bepr connection flow</title>
  <desc id="desc">bepr server runs on the server host. The client host opens an outbound WebSocket to the client endpoint, and the user host can attach directly to the user endpoint after key authentication. A local control socket remains available on the server host.</desc>
  <defs>
    <marker id="arrow" markerWidth="8" markerHeight="8" refX="7" refY="4" orient="auto" markerUnits="strokeWidth">
      <path d="M 0 0 L 8 4 L 0 8 z" fill="#243447"/>
    </marker>
    <marker id="arrow-blue" markerWidth="8" markerHeight="8" refX="7" refY="4" orient="auto" markerUnits="strokeWidth">
      <path d="M 0 0 L 8 4 L 0 8 z" fill="#1d4ed8"/>
    </marker>
    <marker id="arrow-green" markerWidth="8" markerHeight="8" refX="7" refY="4" orient="auto" markerUnits="strokeWidth">
      <path d="M 0 0 L 8 4 L 0 8 z" fill="#15803d"/>
    </marker>
    <marker id="arrow-green-start" markerWidth="8" markerHeight="8" refX="1" refY="4" orient="auto" markerUnits="strokeWidth">
      <path d="M 8 0 L 0 4 L 8 8 z" fill="#15803d"/>
    </marker>
    <marker id="arrow-start" markerWidth="8" markerHeight="8" refX="1" refY="4" orient="auto" markerUnits="strokeWidth">
      <path d="M 8 0 L 0 4 L 8 8 z" fill="#243447"/>
    </marker>
    <style>
      text {
        font-family: Helvetica, Arial, sans-serif;
        fill: #1f2933;
      }
      .title {
        font-size: 34px;
        font-weight: 700;
      }
      .subtitle {
        font-size: 17px;
        fill: #52606d;
      }
      .host-title {
        font-size: 24px;
        font-weight: 700;
      }
      .section {
        font-size: 18px;
        font-weight: 700;
      }
      .body {
        font-size: 15px;
        fill: #3e4c59;
      }
      .code {
        font-family: Menlo, Consolas, monospace;
        font-size: 14px;
        fill: #1f2933;
      }
      .tiny {
        font-size: 13px;
        fill: #52606d;
      }
      .server-host {
        fill: #eef6ff;
        stroke: #2563eb;
        stroke-width: 2;
      }
      .operator-host {
        fill: #fff7ed;
        stroke: #ea580c;
        stroke-width: 2;
      }
      .client-host {
        fill: #ecfdf3;
        stroke: #16a34a;
        stroke-width: 2;
      }
      .internet {
        fill: #f8fafc;
        stroke: #94a3b8;
        stroke-width: 2;
        stroke-dasharray: 10 8;
      }
      .card {
        fill: #ffffff;
        stroke: #9aa5b1;
        stroke-width: 1.5;
      }
      .server-card {
        fill: #dbeafe;
        stroke: #2563eb;
      }
      .operator-card {
        fill: #ffedd5;
        stroke: #ea580c;
      }
      .client-card {
        fill: #dcfce7;
        stroke: #16a34a;
      }
      .shell-card {
        fill: #f0fdf4;
        stroke: #65a30d;
      }
      .note {
        fill: #ffffff;
        stroke: #cbd5e1;
        stroke-width: 1.2;
      }
      .arrow {
        fill: none;
        stroke: #243447;
        stroke-width: 3;
        marker-end: url(#arrow);
      }
      .blue-arrow {
        fill: none;
        stroke: #1d4ed8;
        stroke-width: 3;
        marker-end: url(#arrow-blue);
      }
      .green-arrow {
        fill: none;
        stroke: #15803d;
        stroke-width: 3;
        marker-end: url(#arrow-green);
      }
      .green-bidir {
        fill: none;
        stroke: #15803d;
        stroke-width: 3;
        marker-start: url(#arrow-green-start);
        marker-end: url(#arrow-green);
      }
      .bidir {
        fill: none;
        stroke: #243447;
        stroke-width: 3;
        marker-start: url(#arrow-start);
        marker-end: url(#arrow);
      }
      .dash {
        stroke-dasharray: 9 7;
      }
    </style>
  </defs>

  <rect width="1500" height="760" fill="#f7f7f7"/>

  <text class="title" x="750" y="55" text-anchor="middle">bepr connection model</text>
  <text class="subtitle" x="750" y="84" text-anchor="middle">one bepr binary: server mode, client mode, and user mode</text>
  <text class="subtitle" x="750" y="108" text-anchor="middle">client dials out; user can attach directly over wss or locally via the server socket</text>

  <rect class="operator-host" x="20" y="210" width="315" height="340" rx="12"/>
  <text class="host-title" x="178" y="250" text-anchor="middle">user host</text>
  <text class="tiny" x="178" y="274" text-anchor="middle">remote or local</text>
  <rect class="note" x="55" y="292" width="245" height="54" rx="8"/>
  <text class="body" x="178" y="315" text-anchor="middle">private key stays on user host</text>
  <text class="code" x="178" y="337" text-anchor="middle">~/.ssh/bepr_user_ed25519</text>

  <rect class="card operator-card" x="55" y="364" width="245" height="78" rx="8"/>
  <text class="section" x="178" y="394" text-anchor="middle">bepr user mode</text>
  <text class="code" x="178" y="420" text-anchor="middle">bepr connect pi_zero</text>
  <rect class="note" x="55" y="458" width="245" height="52" rx="8"/>
  <text class="section" x="178" y="479" text-anchor="middle">user config</text>
  <text class="code" x="178" y="500" text-anchor="middle">~/.config/bepr/user.conf</text>

  <rect class="server-host" x="430" y="130" width="430" height="515" rx="12"/>
  <text class="host-title" x="645" y="172" text-anchor="middle">server host</text>

  <rect class="card" x="475" y="184" width="340" height="70" rx="8"/>
  <text class="body" x="645" y="204" text-anchor="middle">public keys copied to server</text>
  <text class="code" x="645" y="224" text-anchor="middle">/etc/bepr/keys/pi_zero.pub</text>
  <text class="code" x="645" y="244" text-anchor="middle">/etc/bepr/user-keys/aperocky.pub</text>

  <rect class="client-host" x="1040" y="130" width="410" height="515" rx="12"/>
  <text class="host-title" x="1245" y="172" text-anchor="middle">client host</text>

  <rect class="internet" x="885" y="210" width="130" height="350" rx="12"/>
  <text class="section" x="950" y="245" text-anchor="middle">internet</text>
  <text class="body" x="950" y="270" text-anchor="middle">outbound</text>
  <text class="body" x="950" y="293" text-anchor="middle">only</text>

  <rect class="card server-card" x="475" y="279" width="340" height="146" rx="8"/>
  <line x1="475" y1="378" x2="815" y2="378" stroke="#64748b" stroke-width="1.5" stroke-dasharray="8 5" opacity="0.55"/>
  <text class="tiny" x="810" y="373" text-anchor="end" fill="#64748b">bridge</text>
  <line x1="645" y1="378" x2="645" y2="425" stroke="#64748b" stroke-width="1.5" stroke-dasharray="8 5" opacity="0.55"/>
  <text class="section" x="645" y="309" text-anchor="middle">bepr server</text>
  <text class="code" x="645" y="337" text-anchor="middle">/etc/bepr/server.conf</text>
  <text class="code" x="645" y="361" text-anchor="middle">/bepr/client/&lt;client_id&gt;</text>
  <text class="code" x="645" y="385" text-anchor="middle">/bepr/user/&lt;user_id&gt;</text>
  <text class="body" x="645" y="409" text-anchor="middle">routes clients and users</text>

  <rect class="card operator-card" x="475" y="518" width="340" height="68" rx="8"/>
  <text class="section" x="645" y="544" text-anchor="middle">local command</text>
  <text class="code" x="645" y="568" text-anchor="middle">bepr connect pi_zero</text>

  <rect class="note" x="690" y="464" width="125" height="34" rx="8"/>
  <text class="code" x="753" y="486" text-anchor="middle">/tmp/bepr.sock</text>

  <rect class="note" x="1085" y="184" width="320" height="54" rx="8"/>
  <text class="body" x="1245" y="207" text-anchor="middle">private key stays on bepr client host</text>
  <text class="code" x="1245" y="229" text-anchor="middle">~/.ssh/bepr_client_ed25519</text>

  <rect class="card client-card" x="1085" y="272" width="320" height="120" rx="8"/>
  <text class="section" x="1245" y="307" text-anchor="middle">bepr client</text>
  <text class="code" x="1245" y="337" text-anchor="middle">/etc/bepr/client.conf</text>
  <text class="code" x="1245" y="363" text-anchor="middle">wss://server/bepr/client/pi_zero</text>

  <rect class="card shell-card" x="1085" y="425" width="320" height="120" rx="8"/>
  <text class="section" x="1245" y="460" text-anchor="middle">client shell</text>
  <text class="code" x="1245" y="490" text-anchor="middle">/bin/sh</text>
  <text class="body" x="1245" y="516" text-anchor="middle">stdin/stdout/stderr are piped</text>

  <path class="green-arrow dash" d="M 645 254 L 645 275"/>
  <text class="tiny" x="668" y="269">authorizes client and user IDs</text>

  <path class="green-arrow" d="M 1085 307 C 1020 307, 1000 345, 950 345 C 900 345, 870 340, 815 340"/>
  <rect class="note" x="820" y="352" width="260" height="72" rx="8"/>
  <text class="section" x="950" y="378" text-anchor="middle">1. outbound client WebSocket</text>
  <text class="tiny" x="950" y="401" text-anchor="middle">client signs server challenge</text>

  <path class="bidir" d="M 645 518 L 645 425"/>
  <path class="bidir" d="M 300 403 C 390 403, 445 378, 475 378"/>

  <path class="bidir" d="M 815 378 C 930 470, 1015 470, 1085 485"/>
  <rect class="note" x="810" y="592" width="290" height="72" rx="8"/>
  <text class="section" x="955" y="618" text-anchor="middle">2. raw bidirectional stream</text>
  <text class="tiny" x="955" y="641" text-anchor="middle">user terminal &lt;-&gt; client shell</text>

  <path class="green-arrow" d="M 178 346 L 178 364"/>
  <text class="tiny" x="212" y="359">bepr user mode signs with private key</text>

  <path class="green-arrow" d="M 1245 238 L 1245 272"/>
  <text class="tiny" x="1258" y="257" text-anchor="start">bepr client signs with private key</text>
</svg>
